<svg width="90" height="20" viewBox="0 0 1026 231" fill="none" xmlns="http://www.w3.org/2000/svg"><title>Navan - Business Travel Solutions &amp; Expense Management</title><g clip-path="url(#a)" fill="white"><path d="M197.1 227.2h-46.7c-2.6-149.1-9-185.6-29.4-185.6-27.9 0-52.5 84.2-79.4 185.6H0V3.2h45.8v102.4C65.3 44.8 88.3 0 127.7 0c57 0 66.5 69.8 69.4 227.2ZM426.9 227.2h-42.6c-42.5-39.7-80.6-70.4-104.3-70.4-10.2 0-16.3 6-18.9 18.3L250 227.2h-34.5C241.9 120 256 0 321.3 0c65.3 0 79.3 119.7 105.6 227.2Zm-154-103c2.6-.4 5.5-.7 8.4-.7 26.2 0 54.7 18 84.8 42.6-17-76.8-31-124.5-50.9-124.5-16.6 0-29.4 31.7-42.2 82.6ZM408.6 3.2H456c22.4 105 38 185.6 62 185.6S559.8 105 581.5 3.2H616c-26.6 107.2-40.3 227.2-103.7 227.2-63.3 0-77.4-120-103.7-227.2ZM809 227.2h-42.6c-42.6-39.7-80.6-70.4-104.3-70.4-10.3 0-16.3 6-18.9 18.3L632 227.2h-34.6C624 120 638.1 0 703.4 0S782.7 119.7 809 227.2Zm-154-103c2.6-.4 5.5-.7 8.4-.7 26.2 0 54.7 18 84.8 42.6-17-76.8-31-124.5-51-124.5-16.6 0-29.4 31.7-42.2 82.6ZM1025.3 227.2h-46.8c-2.5-149.1-9-185.6-29.4-185.6-27.8 0-52.5 84.2-79.4 185.6h-41.6V3.2H874v102.4C893.4 44.8 916.5 0 956 0c56.9 0 66.5 69.8 69.4 227.2Z"></path></g><defs><clipPath id="a"><path fill="#fff" d="M0 0h1025.3v230.4H0z"></path></clipPath></defs></svg>