<svg id="Layer_1" data-name="Layer 1" xmlns="http://www.w3.org/2000/svg" width="26.82mm" height="7.06mm" viewBox="0 0 76.02 20">
  <path fill="white" d="M52.31,4.13A4.35,4.35,0,0,0,49,5.62V4.37H46.31v12.3h2.85V9.53a2.4,2.4,0,0,1,2.45-2.66,3.85,3.85,0,0,1,.67.06l2-2.6a12.35,12.35,0,0,0-1.95-.2Zm24.58.24H73.6l-3,4-3-4H64.25l4.64,6.19-4.64,6.11H67.6l3-3.89,3,3.89h3.39l-4.67-6.1ZM17,1.6c-1,1.3-1.21,1.73-2.15,1.73H.88V20H6.37a4.11,4.11,0,0,0,3.22-1.6c1-1.33,1.14-1.73,2.12-1.73H25.76V0H20.22A4,4,0,0,0,17,1.6ZM21.4,12.37H15.53a3.93,3.93,0,0,0-3.22,1.56c-1,1.34-1.21,1.74-2.15,1.74h-5v-8h5.87a4.06,4.06,0,0,0,3.22-1.6c1-1.3,1.27-1.7,2.18-1.7H21.4Zm21.05-4.1A4,4,0,0,0,44.57,4.7,4.62,4.62,0,0,0,40,0H32V16.67H40A4.67,4.67,0,0,0,45,12,3.94,3.94,0,0,0,42.45,8.27ZM34.84,2.6h5a2.11,2.11,0,0,1,2,2.2,2.16,2.16,0,0,1-2.14,2.13h-4.8Zm4.8,11.47h-4.8V9.53h5a2.35,2.35,0,0,1,2.32,2.24A2.54,2.54,0,0,1,39.64,14.07Z" transform="translate(-0.88)"/>
  <path fill="white" d="M61.4,13.13A2.78,2.78,0,0,1,59,14.3a2.71,2.71,0,0,1-2.88-2.7h8.51a3.6,3.6,0,0,0,.17-1.17c0-3.73-2.31-6.3-5.8-6.3s-5.84,2.44-5.84,6.4,2.32,6.37,5.91,6.37c2.51,0,4.72-1.23,5.36-3.77ZM59,6.73a2.51,2.51,0,0,1,2.75,2.5h-5.6A2.64,2.64,0,0,1,59,6.73Z" transform="translate(-0.88)"/>
</svg>
