<svg class="sui-w-11 lg:sui-w-16" aria-label="The Home Depot Logo" viewBox="0 0 64 64" fill="none" xmlns="http://www.w3.org/2000/svg"><path fill-rule="evenodd" clip-rule="evenodd" d="M0.00146484 0.0017395H63.9953V63.9923H0.00146484V0.0017395Z" fill="white"></path><path fill-rule="evenodd" clip-rule="evenodd" d="M0.00301613 0.00268237C13.3893 0.00268237 26.7687 0.00268237 40.1547 0.00268237C43.3869 0.00268237 46.6194 -0.00410357 49.8449 0.00918556C48.9511 0.91624 48.0369 1.81679 47.1369 2.72413C47.4926 3.10018 47.869 3.44966 48.2253 3.81921C49.0453 3.25484 49.9724 2.80471 50.9805 2.73063C51.8876 2.63648 52.8018 2.87172 53.6348 3.23477C53.9506 3.36907 54.2464 3.58396 54.6024 3.61761C54.9519 3.59753 55.214 3.28849 55.335 2.97917C55.4357 2.76456 55.3415 2.50896 55.1738 2.35429C54.3943 1.56826 53.6079 0.795506 52.8351 0.00918556C56.558 -0.0108895 60.2808 0.00918556 63.9971 0.00268237C63.9971 3.63118 64.0037 7.26647 63.9971 10.9018C63.2311 10.1494 62.4849 9.38311 61.7254 8.63072C61.5238 8.42206 61.195 8.31461 60.9193 8.44241C60.7378 8.52978 60.563 8.67087 60.4824 8.86569C60.3815 9.2556 60.5565 9.63844 60.7109 9.98763C61.1814 10.9823 61.3898 12.1046 61.2487 13.1999C61.1545 13.9458 60.8856 14.6781 60.4824 15.3166C60.375 15.471 60.2743 15.6321 60.1801 15.7938C60.5698 16.1295 60.8992 16.5327 61.2956 16.8621C62.1827 15.9482 63.0965 15.0545 63.9971 14.1471C63.9971 20.2149 64.0037 26.2829 63.9971 32.3507C63.8221 32.4112 63.6273 32.5322 63.4458 32.4446C63.204 32.2902 63.0225 32.0617 62.8209 31.8669C60.6436 29.703 58.4864 27.5191 56.3026 25.3623C55.4357 26.2292 54.5826 27.1026 53.7018 27.9494C54.1658 28.4734 54.6833 28.9371 55.1671 29.4409C56.9142 31.1883 58.6611 32.9354 60.4154 34.6822C60.563 34.8369 60.7378 34.9715 60.8183 35.1731C60.8452 35.3948 60.6908 35.5828 60.6303 35.7844C60.5429 36.0196 60.7313 36.3018 60.9798 36.3083C61.2015 36.349 61.3898 36.2009 61.5309 36.0533C62.3506 35.2265 63.1771 34.4068 63.9971 33.5869C63.9971 43.7203 63.9971 53.8601 63.9971 63.9933C53.8635 63.9933 43.7228 63.9933 33.5824 63.9933C34.362 63.214 35.1416 62.441 35.9211 61.6614C33.2669 59.0141 30.6191 56.3664 27.9713 53.7123C27.1046 54.5455 26.2713 55.4124 25.4112 56.2522C25.2296 56.4405 25.028 56.6217 24.9409 56.8771C24.9005 57.1256 25.129 57.3608 25.3707 57.3744C25.5859 57.3476 25.7672 57.2062 25.9823 57.1592C26.1704 57.1462 26.3185 57.2938 26.4526 57.4148C28.0253 59.0005 29.6045 60.5731 31.1838 62.1523C31.5799 62.5685 32.0103 62.9448 32.3795 63.3752C32.5478 63.5632 32.4336 63.8049 32.3394 63.9933C26.2713 63.9933 20.2098 63.9933 14.1488 63.9933C15.5798 62.562 17.0114 61.1307 18.4425 59.6994C18.7111 59.4441 18.9868 59.1487 19.027 58.7588C19.0875 58.3086 18.6308 57.8582 18.1804 57.9524C17.804 58.0261 17.4952 58.3219 17.1053 58.3219C16.8568 58.3018 16.6684 58.1203 16.5005 57.9591C13.0799 54.5455 9.66641 51.1254 6.25262 47.7115C6.02415 47.4833 5.74874 47.2617 5.66787 46.932C5.65458 46.5426 5.92999 46.2265 6.03094 45.8705C6.15846 45.4204 5.73517 44.9296 5.27794 44.9635C4.96238 44.9836 4.68018 45.1648 4.46528 45.3868C2.98672 46.8853 1.48158 48.3635 0.00301613 49.8621C-0.00377016 33.2442 0.00301613 16.6203 0.00301613 0.00268237Z" fill="#F96302"></path><path fill-rule="evenodd" clip-rule="evenodd" d="M46.1623 3.69177C46.2228 3.62475 46.3302 3.56396 46.3908 3.6649C51.0744 8.34155 55.7584 13.0253 60.4355 17.7087C58.7958 19.3483 57.1496 20.9945 55.5098 22.6409C55.2947 22.8425 55.0325 23.0105 54.737 23.0306C54.327 23.0645 53.917 22.6947 53.9507 22.2779C53.9643 21.8682 54.3135 21.5524 54.3203 21.1356C54.3338 20.8735 54.1322 20.679 53.9643 20.4971C50.49 17.0301 47.0224 13.5563 43.5482 10.0819C43.3533 9.89383 43.1384 9.65859 42.8427 9.67894C42.4058 9.68545 42.0767 10.0886 41.6333 10.0417C41.3777 10.0482 41.1693 9.84661 41.0418 9.63851C40.867 9.27575 41.0282 8.8389 41.2906 8.57029C42.9167 6.94393 44.5429 5.31785 46.1623 3.69177Z" fill="white"></path><path fill-rule="evenodd" clip-rule="evenodd" d="M52.9097 5.05553C53.044 4.807 53.2993 4.57854 53.6015 4.61869C53.9373 4.64583 54.1793 4.92094 54.4009 5.1429C55.7448 6.49358 57.0885 7.83748 58.4321 9.18138C58.6874 9.4302 58.9896 9.67195 59.0501 10.0415C59.0837 10.4243 58.7343 10.767 58.3648 10.8075C58.0558 10.8143 57.7737 10.6463 57.5052 10.4984C56.9338 10.1625 56.289 9.89363 55.6103 9.92727C55.2609 9.92049 54.9253 10.0616 54.6093 10.2027C54.2398 9.80626 53.8166 9.45028 53.4672 9.04029C53.5746 8.73804 53.7157 8.44907 53.736 8.12617C53.7832 7.39414 53.4875 6.69518 53.1178 6.0836C52.9298 5.78134 52.7819 5.40472 52.9097 5.05553Z" fill="white"></path><path fill-rule="evenodd" clip-rule="evenodd" d="M23.2935 8.61698C24.0194 7.85101 24.7852 7.13199 25.5106 6.37253C26.2026 7.04434 26.8743 7.72321 27.553 8.40181C27.7747 8.61698 27.5731 8.97974 27.3246 9.06711C27.1163 9.09397 26.9348 8.95288 26.7468 8.88559C26.0214 8.52961 25.1211 8.48946 24.3957 8.87908C24.2074 8.95967 24.0528 9.12083 23.8512 9.15448C23.6496 8.99331 23.4817 8.79172 23.2935 8.61698Z" fill="white"></path><path fill-rule="evenodd" clip-rule="evenodd" d="M22.8379 9.04639C23.8256 10.0007 24.7799 10.9886 25.7543 11.9494C27.2798 13.468 28.7982 15.0002 30.3305 16.5188C29.4568 17.4058 28.5765 18.2795 27.6963 19.1529C27.5148 19.3542 27.152 19.4419 26.9772 19.1931C26.7623 18.9646 26.9973 18.6824 27.0646 18.4472C27.1452 18.2724 27.0044 18.1181 26.8899 17.9973C25.1294 16.2432 23.3751 14.4893 21.6215 12.7289C21.4603 12.581 21.3257 12.3998 21.1309 12.2988C20.8622 12.2383 20.6538 12.4804 20.3917 12.4939C20.1901 12.4736 20.0021 12.2723 20.0289 12.0636C20.0422 11.9024 20.1364 11.7613 20.2506 11.6471C21.1108 10.7802 21.9845 9.92686 22.8379 9.04639Z" fill="white"></path><path fill-rule="evenodd" clip-rule="evenodd" d="M26.3444 10.1219C26.2573 9.90022 26.4117 9.63161 26.6469 9.59796C26.8216 9.5711 26.9627 9.70512 27.0837 9.81963C27.809 10.5452 28.5344 11.2778 29.2669 11.9968C29.3944 12.1379 29.5759 12.2654 29.5894 12.4738C29.6163 12.6822 29.4147 12.8838 29.1999 12.8634C28.9175 12.8634 28.7026 12.6417 28.4474 12.5476C28.0711 12.3731 27.6143 12.3596 27.2448 12.5612C27.05 12.3663 26.855 12.1647 26.6534 11.9832C26.741 11.6875 26.8216 11.3719 26.7475 11.0626C26.6938 10.7134 26.4518 10.4445 26.3444 10.1219Z" fill="white"></path><path fill-rule="evenodd" clip-rule="evenodd" d="M39.2126 10.6467C39.3942 10.4652 39.6224 10.3309 39.878 10.2973C40.3278 10.2303 40.7984 10.6668 40.7113 11.1237C40.6508 11.5269 40.3148 11.8493 40.3414 12.2731C40.4087 12.5683 40.6508 12.7699 40.8453 12.9786C44.2794 16.4055 47.7133 19.8256 51.1336 23.2593C51.3219 23.4275 51.51 23.6492 51.7789 23.6492C52.1821 23.6492 52.4911 23.3469 52.8743 23.2793C53.3176 23.2058 53.7545 23.6424 53.7005 24.086C53.6739 24.3883 53.4924 24.6504 53.2843 24.8585C51.5569 26.5787 49.8366 28.3125 48.1097 30.0328C47.8881 30.2544 47.6059 30.456 47.2767 30.456C46.9134 30.4761 46.5642 30.1674 46.5172 29.8111C46.47 29.3406 46.9069 28.9911 46.8933 28.5206C46.8732 28.299 46.7188 28.1177 46.5709 27.9563C43.5536 24.9461 40.543 21.9289 37.526 18.9185C40.0191 23.5482 42.5323 28.1649 45.0254 32.7946C45.0655 32.8617 45.0992 32.9357 45.1328 33.0163C44.9516 33.184 44.7768 33.3655 44.6021 33.547C39.6091 31.088 34.6228 28.6012 29.6366 26.1354C28.8505 25.7458 28.071 25.2888 27.1839 25.1814C26.8882 25.1407 26.6866 25.383 26.4717 25.5374C26.2497 25.7121 25.9539 25.8195 25.6788 25.7322C25.3494 25.5846 25.1209 25.1947 25.2218 24.8384C25.2889 24.5967 25.4568 24.3951 25.6316 24.22C27.2444 22.6143 28.8505 21.0018 30.4634 19.4023C32.9763 20.632 35.4963 21.8348 38.0165 23.0647C38.0971 23.125 38.1842 23.1855 38.2583 23.2661C38.2987 23.2188 38.3324 23.1719 38.3725 23.125L38.2784 23.1383C36.9548 20.6184 35.5639 18.1322 34.2397 15.6124C35.9063 13.9594 37.5528 12.2997 39.2126 10.6467Z" fill="white"></path><path fill-rule="evenodd" clip-rule="evenodd" d="M30.3905 11.7816C30.5115 11.5599 30.8541 11.5331 31.0153 11.7211C31.6937 12.4065 32.386 13.0919 33.071 13.7775C32.3052 14.55 31.5391 15.3162 30.7603 16.0822C30.5856 15.8806 30.3501 15.7194 30.2158 15.4842C30.4375 15.1079 30.6726 14.7247 30.7331 14.2814C30.8474 13.6698 30.7467 13.0249 30.4847 12.4605C30.4106 12.2453 30.2495 11.9968 30.3905 11.7816Z" fill="white"></path><path fill-rule="evenodd" clip-rule="evenodd" d="M19.107 12.7902C19.2413 12.6491 19.3892 12.5013 19.584 12.4543C19.7791 12.4142 20.0209 12.5349 20.0477 12.7498C20.095 12.9851 19.9202 13.1801 19.8733 13.4083C19.8461 13.5898 19.994 13.7177 20.1015 13.8387C21.8959 15.6324 23.6832 17.4267 25.4776 19.214C25.5986 19.3285 25.7262 19.4696 25.9009 19.5097C26.1158 19.4897 26.2971 19.3486 26.5057 19.3016C26.7611 19.2745 26.9961 19.5502 26.9155 19.7919C26.8821 19.9734 26.741 20.108 26.62 20.2355C25.7462 21.1092 24.8725 21.9826 23.9991 22.8496C23.8447 23.0042 23.6431 23.1654 23.4143 23.1117C23.2868 23.0577 23.1793 22.957 23.1321 22.8295C23.0651 22.5337 23.3809 22.2917 23.3069 21.9959C23.2398 21.882 23.1457 21.7943 23.0583 21.7005C22.2386 20.8873 21.4254 20.0608 20.5988 19.2479C20.3099 19.5434 20.0209 19.8324 19.7251 20.1213C19.5235 19.9265 19.3219 19.7314 19.1339 19.5233C19.4293 19.2343 19.7186 18.9389 20.0144 18.6496C19.2882 17.9377 18.5692 17.2116 17.8504 16.4925C17.6957 16.3449 17.5614 16.1838 17.3799 16.0763C17.0508 15.9686 16.7349 16.4323 16.4191 16.177C16.1634 15.9957 16.2443 15.6324 16.4527 15.4444C17.3329 14.5506 18.2265 13.6772 19.107 12.7902Z" fill="white"></path><path fill-rule="evenodd" clip-rule="evenodd" d="M15.6682 16.2773C15.8701 16.1492 16.1723 16.2301 16.2662 16.4585C16.3604 16.7339 16.1118 16.9692 16.105 17.2381C16.0982 17.3792 16.2125 17.4798 16.2998 17.574C18.1613 19.4356 20.0162 21.2966 21.8776 23.1512C22.2133 23.5139 22.6436 22.8891 23.0064 23.158C23.2417 23.3463 23.1611 23.7155 22.9595 23.8903C22.0857 24.7708 21.2055 25.6374 20.3385 26.5176C20.1974 26.6522 20.0563 26.8133 19.8615 26.8738C19.6463 26.9343 19.3842 26.7998 19.3576 26.5716C19.3172 26.303 19.5592 26.0943 19.5457 25.8322C19.5117 25.718 19.4382 25.6241 19.3576 25.5367C17.5969 23.7831 15.8361 22.0225 14.0821 20.2618C13.9145 20.1074 13.7734 19.9123 13.5514 19.8317C13.3096 19.8184 13.108 20 12.8728 20.0265C12.6712 20.0333 12.4964 19.8518 12.4896 19.6573C12.4696 19.4486 12.6174 19.2809 12.7585 19.1398C13.632 18.2662 14.5054 17.3925 15.3727 16.5191C15.4666 16.4317 15.5539 16.3443 15.6682 16.2773Z" fill="white"></path><path fill-rule="evenodd" clip-rule="evenodd" d="M10.809 21.0821C11.2121 20.6922 11.6017 20.289 12.0048 19.8926C12.7104 20.5783 13.4022 21.2902 14.1078 21.9824C14.2287 22.1167 14.3763 22.2377 14.4433 22.4125C14.5242 22.7419 14.1482 23.1046 13.8188 22.9567C13.4895 22.8089 13.2277 22.5468 12.9117 22.372C12.3811 22.0429 11.7628 21.8345 11.1316 21.9086C10.9501 21.7206 10.7485 21.5456 10.5874 21.3442C10.6408 21.2365 10.7285 21.1627 10.809 21.0821Z" fill="white"></path><path fill-rule="evenodd" clip-rule="evenodd" d="M7.87886 24.0121C8.63157 23.273 9.37071 22.5271 10.1166 21.7812C11.5279 23.1992 12.9457 24.6169 14.3634 26.0281C15.143 26.8006 15.9025 27.5872 16.6886 28.3464C16.9106 28.5949 17.206 28.3868 17.4481 28.2991C17.6898 28.1917 17.9723 28.4069 17.9655 28.6619C17.9655 28.8366 17.8646 28.9845 17.7506 29.1058C16.8368 30.0129 15.9362 30.9199 15.0291 31.8273C14.9013 31.9548 14.7398 32.0823 14.5518 32.069C14.3434 32.0894 14.1418 31.8878 14.1618 31.6859C14.1754 31.471 14.3434 31.2963 14.3434 31.0811C14.3569 30.8996 14.2023 30.7853 14.0948 30.6643C11.9512 28.5344 9.82765 26.3844 7.67725 24.2607C7.74454 24.1733 7.80505 24.0927 7.87886 24.0121Z" fill="white"></path><path fill-rule="evenodd" clip-rule="evenodd" d="M58.3113 23.3532C59.1441 24.1729 59.9707 24.9993 60.7905 25.8326C61.0523 26.0814 60.8643 26.5785 60.5149 26.6325C60.1923 26.6794 59.9438 26.4241 59.6954 26.2561C59.0302 25.7989 58.244 25.3692 57.4112 25.5103C57.1893 25.3087 56.9745 25.1003 56.793 24.8653C57.3103 24.368 57.8075 23.857 58.3113 23.3532Z" fill="white"></path><path fill-rule="evenodd" clip-rule="evenodd" d="M7.19227 24.7173C7.44103 24.8114 7.59538 25.0936 7.79694 25.2683C7.68952 26.0479 8.05871 26.7802 8.49547 27.3918C8.62325 27.5869 8.7776 27.7681 8.85816 27.9898C8.9458 28.2855 8.65689 28.5946 8.36119 28.5609C8.19327 28.5609 8.07907 28.4198 7.97164 28.3192C7.23919 27.5798 6.50052 26.8543 5.76807 26.1152C6.25175 25.658 6.70208 25.1677 7.19227 24.7173Z" fill="white"></path><path fill-rule="evenodd" clip-rule="evenodd" d="M22.1438 28.5076C23.481 28.0773 24.9324 28.0304 26.31 28.3126C28.6488 28.8099 30.7183 30.1807 32.3716 31.8805C33.991 33.5202 35.2812 35.5766 35.7181 37.8677C35.9599 39.1243 35.9061 40.4413 35.5436 41.671C35.1874 42.8873 34.5418 44.0096 33.7289 44.9771C33.3794 44.6076 32.9965 44.2649 32.6603 43.8885C32.6603 43.707 32.7746 43.5524 32.8085 43.3779C32.9897 42.7867 32.8085 42.1214 32.358 41.691C29.0387 38.3651 25.7055 35.0388 22.3856 31.7126C22.0833 31.4035 21.7005 31.155 21.2636 31.1214C20.9073 31.0744 20.5578 31.2019 20.2219 31.3227C20.0873 31.3968 20.0002 31.2291 19.9128 31.1615C19.6439 30.8728 19.3482 30.6107 19.0795 30.315C19.0795 30.2949 19.0728 30.2545 19.0728 30.2344C19.9666 29.4684 21.015 28.8704 22.1438 28.5076Z" fill="white"></path><path fill-rule="evenodd" clip-rule="evenodd" d="M31.2046 28.1371C31.5136 28.2378 31.7958 28.3925 32.0848 28.5403C33.167 29.0646 34.2417 29.6088 35.3307 30.1396C35.4245 30.1868 35.5119 30.2606 35.5928 30.3344C36.5064 31.2618 37.4273 32.1756 38.3477 33.0963C38.8451 33.6273 39.4697 34.037 40.1486 34.2923C40.6257 34.4738 41.1635 34.4738 41.6405 34.3056C41.8825 34.225 42.1447 34.1311 42.4 34.2117C42.6553 34.3126 42.8434 34.568 42.8634 34.8434C42.8434 35.2129 42.6081 35.5219 42.3596 35.7773C41.5398 36.6105 40.7062 37.4373 39.8732 38.257C39.6515 38.4586 39.3962 38.6667 39.0869 38.7003C38.6435 38.7673 38.2066 38.2974 38.3409 37.8671C38.4687 37.4302 38.6435 36.9869 38.5697 36.5299C38.462 35.7637 38.0251 35.0851 37.5413 34.5007C35.7203 32.673 33.8925 30.8518 32.0648 29.0173C31.7823 28.7216 31.4732 28.453 31.2046 28.1371Z" fill="white"></path><path fill-rule="evenodd" clip-rule="evenodd" d="M51.6999 29.9653C52.2043 29.4614 52.7147 28.9573 53.2189 28.4469C53.4406 28.6282 53.6354 28.8433 53.8438 29.0449C53.7564 29.7167 53.9852 30.3818 54.3344 30.9464C54.5156 31.269 54.7777 31.5444 54.9392 31.8803C55.0266 32.0418 54.9661 32.223 54.9056 32.3842C55.7524 32.9556 56.4981 33.6812 57.0896 34.5076C57.7682 35.4687 58.2453 36.611 58.2184 37.807C58.2252 38.9428 57.7346 40.0311 57.0155 40.8912C56.8207 40.6896 56.5922 40.5084 56.424 40.2799C56.4579 40.0311 56.5787 39.7893 56.5181 39.5408C56.4511 39.2182 56.2023 38.9897 55.9806 38.7678C54.2068 37.0006 52.4393 35.2337 50.672 33.4663C50.4973 33.2915 50.2889 33.1304 50.0401 33.1103C49.8051 33.0831 49.5698 33.1504 49.3549 33.2242C49.1465 33.0297 48.9384 32.821 48.7368 32.6194C49.6303 31.8535 50.7928 31.3629 51.9824 31.4234C52.4393 31.4101 52.883 31.5176 53.3263 31.6182C52.7888 31.0606 52.2173 30.5364 51.6999 29.9653Z" fill="white"></path><path fill-rule="evenodd" clip-rule="evenodd" d="M16.534 33.9092C16.9035 32.8812 17.488 31.9405 18.1802 31.1004C18.5229 31.4502 18.886 31.7858 19.2219 32.1421C19.2889 32.3572 19.1145 32.5588 19.0808 32.7737C18.9061 33.3517 19.1345 33.9833 19.5581 34.3998C22.8237 37.6723 26.0964 40.9381 29.3691 44.2103C29.685 44.5533 30.0678 44.8756 30.5516 44.9497C30.9817 45.017 31.4053 44.8691 31.8017 44.7212C32.1645 45.084 32.5276 45.4403 32.8903 45.803C32.0972 46.4952 31.1765 47.0395 30.1956 47.4226C28.7171 47.9935 27.064 48.0876 25.5117 47.7452C23.1529 47.2275 21.0765 45.8098 19.4167 44.0828C17.8847 42.4771 16.6479 40.508 16.2113 38.3105C15.9159 36.8526 16.01 35.3072 16.534 33.9092Z" fill="white"></path><path fill-rule="evenodd" clip-rule="evenodd" d="M47.0763 35.8519C47.1571 34.8306 47.6073 33.8563 48.2794 33.09C48.474 33.2916 48.6826 33.4932 48.884 33.6948C48.8102 33.9369 48.6956 34.1922 48.7632 34.4472C48.8034 34.676 48.9578 34.8575 49.1192 35.0186C50.8933 36.7858 52.6537 38.5598 54.4281 40.327C54.6362 40.5286 54.8378 40.7706 55.1336 40.8512C55.4025 40.9252 55.6779 40.8308 55.9397 40.7502C56.1416 40.9521 56.35 41.1537 56.5448 41.3686C55.698 42.0673 54.643 42.5581 53.5275 42.5581C52.4456 42.605 51.3839 42.2219 50.4835 41.6576C49.8315 41.2411 49.2334 40.7369 48.7364 40.1522C48.9713 40.9385 48.9179 41.819 48.548 42.5581C48.1853 43.2836 47.6209 43.8752 47.063 44.4463C46.8614 44.2447 46.653 44.036 46.4446 43.8347C46.6196 43.5523 46.7338 43.2163 46.6261 42.8872C46.4986 42.551 46.2229 42.3093 45.9811 42.054C45.4837 41.5498 44.9799 41.046 44.4757 40.5421C44.1802 40.2664 43.8641 39.9506 43.4408 39.9238C43.1922 39.8972 42.9706 40.0247 42.7622 40.1457C42.554 39.9441 42.3524 39.7357 42.144 39.5344C42.9502 38.7212 43.8709 37.8812 45.0537 37.7333C46.0213 37.5719 46.9957 37.9886 47.6811 38.6539C47.251 37.7938 46.9824 36.826 47.0763 35.8519Z" fill="white"></path><path fill-rule="evenodd" clip-rule="evenodd" d="M11.6517 38.1962C11.8533 38.0014 12.1154 37.8535 12.3976 37.8334C12.8613 37.8063 13.2849 38.2901 13.1568 38.7405C13.0561 39.0832 12.8076 39.3854 12.794 39.7553C12.8209 40.0776 13.0898 40.3061 13.305 40.5212C16.7521 43.9682 20.2061 47.4222 23.6535 50.8692C23.815 51.0239 23.9962 51.1783 24.2247 51.1983C24.6143 51.1983 24.9169 50.9097 25.2865 50.8223C25.7298 50.7349 26.1735 51.1381 26.1534 51.5815C26.1398 51.884 25.9719 52.1594 25.7635 52.3743C24.0299 54.1081 22.2892 55.8487 20.5556 57.5822C20.3271 57.8039 20.0449 57.9987 19.7158 57.9987C19.3125 58.0123 18.9362 57.6294 18.9695 57.2192C19.0103 56.8162 19.3459 56.4936 19.353 56.0769C19.3394 55.8283 19.1443 55.64 18.9899 55.4656C17.4443 53.9133 15.892 52.3743 14.3532 50.8291C14.2927 50.7821 14.2121 50.6475 14.1247 50.7414C13.5872 51.2588 13.0697 51.8034 12.5319 52.3206C12.1691 51.9578 11.8063 51.595 11.4433 51.2255C11.9607 50.6812 12.4983 50.1502 13.0426 49.6263C13.0426 49.5991 13.0496 49.5389 13.0496 49.5117C11.5912 48.0808 10.1598 46.6291 8.7084 45.1846C8.48671 44.9762 8.27803 44.7144 7.96926 44.6403C7.54596 44.6131 7.21655 44.9425 6.82011 45.0166C6.30944 45.104 5.84572 44.5261 6.02046 44.0488C6.10784 43.7129 6.37646 43.4708 6.61172 43.2427C8.29161 41.5561 9.97828 39.8828 11.6517 38.1962Z" fill="white"></path><path fill-rule="evenodd" clip-rule="evenodd" d="M41.6592 40.0117C42.4656 40.764 43.2251 41.5704 44.018 42.3432C45.5234 43.855 47.0353 45.3669 48.5473 46.8787C48.6547 46.9664 48.7554 47.0871 48.8965 47.114C49.1857 47.1411 49.4139 46.8587 49.7032 46.9124C49.8779 46.9729 50.0388 47.1411 50.019 47.3357C50.019 47.5978 49.7971 47.7793 49.6356 47.954C48.6883 48.8882 47.7541 49.8354 46.8069 50.7696C46.5985 50.9981 46.2085 50.8839 46.081 50.6285C45.893 50.3127 46.4036 49.9765 46.135 49.6878C44.1859 47.7459 42.2371 45.797 40.2951 43.8483C40.154 43.7207 40.0333 43.5596 39.865 43.4719C39.5761 43.3913 39.3476 43.6334 39.079 43.667C38.8706 43.6469 38.669 43.4654 38.6822 43.2502C38.6622 43.015 38.8369 42.834 38.9845 42.6794C39.8786 41.7921 40.7724 40.8986 41.6592 40.0117Z" fill="white"></path><path fill-rule="evenodd" clip-rule="evenodd" d="M35.6646 45.9987C36.4637 45.2124 37.2431 44.3995 38.0561 43.6265C38.775 44.3523 39.5007 45.0713 40.2196 45.7969C40.4613 46.0321 40.206 46.3884 39.9575 46.4958C39.7828 46.5159 39.6214 46.4084 39.4667 46.3414C38.8491 46.0386 38.1367 45.891 37.4582 46.0658C37.0283 46.1531 36.652 46.3949 36.2757 46.6165C36.0742 46.4084 35.8729 46.2003 35.6646 45.9987Z" fill="white"></path><path fill-rule="evenodd" clip-rule="evenodd" d="M32.4 49.2707C33.3277 48.33 34.2685 47.4094 35.1957 46.4752C36.7008 47.9605 38.1859 49.4723 39.6981 50.9573C40.854 52.1064 41.9964 53.269 43.1588 54.4113C42.2585 55.3385 41.3313 56.239 40.4304 57.1594C40.3029 57.3007 40.1214 57.3813 39.9534 57.4551C39.7855 57.3949 39.5771 57.3344 39.5233 57.1464C39.4227 56.8303 39.7518 56.5817 39.7117 56.2727C39.5771 56.0106 39.3418 55.8223 39.1402 55.6142C37.5073 53.981 35.8746 52.3484 34.2414 50.7153C33.9527 50.4467 33.7106 50.1243 33.3679 49.9227C33.0252 49.8552 32.7161 50.292 32.387 50.0568C32.1048 49.8755 32.1854 49.4723 32.4 49.2707Z" fill="white"></path><path fill-rule="evenodd" clip-rule="evenodd" d="M38.9181 47.6043C38.8107 47.3286 39.066 47.006 39.3549 47.053C39.4892 47.0866 39.5898 47.174 39.6839 47.2681C40.3892 47.9806 41.1016 48.6793 41.8004 49.3916C42.0286 49.6268 42.3243 49.8284 42.4184 50.1643C42.3311 50.3122 42.2369 50.5138 42.0356 50.5339C41.706 50.5675 41.4643 50.3054 41.1686 50.1977C40.7655 49.9961 40.2753 49.9961 39.8722 50.2047C39.6574 49.9896 39.449 49.7744 39.2339 49.5663C39.3817 49.2505 39.449 48.8877 39.3413 48.5515C39.2607 48.2088 39.0323 47.9266 38.9181 47.6043Z" fill="white"></path><path fill-rule="evenodd" clip-rule="evenodd" d="M43.2396 49.3579C43.3807 49.143 43.7233 49.1094 43.8912 49.311C44.6169 50.0436 45.3561 50.7691 46.0747 51.5082C45.2484 52.3146 44.4557 53.1612 43.6091 53.9475C43.4146 53.7391 43.206 53.5375 43.0044 53.3291C43.7233 52.4424 43.8242 51.1587 43.3405 50.1375C43.2529 49.8954 43.0649 49.5997 43.2396 49.3579Z" fill="white"></path><path fill-rule="evenodd" clip-rule="evenodd" d="M0.00301613 52.0325C0.27164 51.925 0.527257 51.7568 0.823026 51.7636C1.17902 51.8309 1.40099 52.1467 1.64926 52.3817C5.02968 55.7484 8.39624 59.1215 11.7696 62.4879C11.9576 62.6966 12.1997 62.9047 12.2333 63.2005C12.2198 63.4891 12.0651 63.7447 11.9446 64.0001C7.95937 63.9933 3.98148 63.9933 0.00301613 63.9933C0.00301613 60.0085 -0.00377016 56.017 0.00301613 52.0325Z" fill="#F96302"></path><path fill-rule="evenodd" clip-rule="evenodd" d="M31.2845 51.8509C32.4806 51.7502 33.6702 52.18 34.6578 52.832C35.4306 53.3495 36.1497 53.9475 36.7005 54.6934C37.3594 55.5736 37.7623 56.6488 37.7694 57.7575C37.7892 59.0208 37.2921 60.2974 36.3917 61.1909C36.1831 60.9893 35.9815 60.788 35.7801 60.5796C35.9009 60.3514 36.042 60.1094 36.0018 59.8405C35.9348 59.4373 35.6591 59.1079 35.3834 58.8325C33.8718 57.3207 32.3596 55.8088 30.8476 54.2967C30.5386 53.9944 30.1891 53.665 29.7321 53.6316C29.4836 53.6048 29.2616 53.7323 29.0535 53.8533C28.8584 53.6382 28.5898 53.477 28.4688 53.2084C29.2079 52.4489 30.2159 51.9179 31.2845 51.8509Z" fill="white"></path><path fill-rule="evenodd" clip-rule="evenodd" d="M58.4443 60.1972C58.4443 58.9916 59.4222 58.1023 60.5778 58.1023C61.7224 58.1023 62.7 58.9916 62.7 60.1972C62.7 61.4141 61.7224 62.3034 60.5778 62.3034C59.4222 62.3034 58.4443 61.4141 58.4443 60.1972ZM60.5759 61.953C61.5257 61.953 62.2757 61.2085 62.2757 60.1971C62.2757 59.2024 61.5257 58.4523 60.5759 58.4523C59.6145 58.4523 58.8645 59.2024 58.8645 60.1971C58.8645 61.2085 59.6145 61.953 60.5759 61.953ZM60.1314 61.4145H59.7648V58.992H60.6869C61.2594 58.992 61.5426 59.2029 61.5426 59.6807C61.5426 60.1145 61.2704 60.3033 60.9148 60.3477L61.604 61.4145H61.1924L60.5538 60.3641H60.1314V61.4145ZM60.5709 60.0531C60.8818 60.0531 61.1597 60.031 61.1597 59.6586C61.1597 59.3586 60.8875 59.3032 60.6319 59.3032H60.1318V60.0531H60.5709Z" fill="white"></path></svg>