<svg width="152" height="42" viewBox="0 0 152 42" fill="none" xmlns="http://www.w3.org/2000/svg">
<g clip-path="url(#clip0_4124_258)">
<path d="M16.8804 41.8L0.900391 28.31V4.66996L17.0004 18.26L39.9004 0.209961L39.9204 23.62L16.8804 41.8ZM17.0004 33.62L33.5704 20.55V13.29L16.8704 26.46L7.24039 18.33V25.36L17.0004 33.61V33.62Z" fill="#F2654C"/>
<path d="M60.7597 7.3802C62.0697 7.3802 63.1397 7.5302 63.9897 7.8302C64.8497 8.1302 65.5497 8.53019 66.0697 9.09019C66.5797 9.64019 66.9497 10.3102 67.1797 11.1002C67.3897 11.8902 67.4997 12.7602 67.4997 13.7002V22.7902C66.8797 22.9202 65.9997 23.0902 64.8897 23.2802C63.7797 23.4702 62.4097 23.5602 60.8197 23.5602C59.8097 23.5602 58.9097 23.4702 58.0997 23.3002C57.2897 23.1302 56.5797 22.8302 55.9997 22.4202C55.3997 22.0102 54.9497 21.5002 54.6497 20.8402C54.3297 20.2002 54.1797 19.4102 54.1797 18.4702C54.1797 17.5302 54.3497 16.8102 54.7197 16.1902C55.0797 15.5702 55.5797 15.0602 56.1797 14.7002C56.7797 14.3402 57.4897 14.0602 58.2797 13.8902C59.0697 13.7202 59.8897 13.6302 60.7197 13.6302C61.2997 13.6302 61.7897 13.6502 62.2397 13.6902C62.6897 13.7302 63.0297 13.8002 63.3097 13.8802V13.4702C63.3097 12.7202 63.0697 12.1302 62.6197 11.6802C62.1697 11.2302 61.3797 11.0002 60.2597 11.0002C59.5097 11.0002 58.7797 11.0602 58.0497 11.1702C57.3197 11.2802 56.6997 11.4302 56.1697 11.6202L55.6097 8.1002C55.8697 8.0102 56.1897 7.93019 56.5697 7.84019C56.9597 7.75019 57.3597 7.6702 57.8097 7.6102C58.2597 7.5502 58.7297 7.4802 59.2397 7.4402C59.7297 7.4202 60.2197 7.3802 60.7397 7.3802H60.7597ZM61.1197 20.1802C61.5497 20.1802 61.9597 20.1802 62.3597 20.1602C62.7497 20.1402 63.0697 20.1202 63.2997 20.0702V16.7602C63.1297 16.7202 62.8497 16.6702 62.5097 16.6302C62.1497 16.5902 61.8197 16.5702 61.5497 16.5702C61.1397 16.5702 60.7597 16.5902 60.3897 16.6302C60.0297 16.6702 59.6997 16.7802 59.4297 16.9102C59.1497 17.0402 58.9397 17.2302 58.7897 17.4602C58.6397 17.6902 58.5497 17.9902 58.5497 18.3402C58.5497 19.0202 58.7897 19.4902 59.2397 19.7702C59.6897 20.0502 60.3097 20.1802 61.1197 20.1802ZM75.4897 3.34019C75.4897 4.15019 75.2297 4.7702 74.7197 5.2402C74.2097 5.7102 73.5897 5.9202 72.8797 5.9202C72.1697 5.9202 71.5497 5.6902 71.0397 5.2402C70.5297 4.7702 70.2697 4.15019 70.2697 3.34019C70.2697 2.53019 70.5297 1.9102 71.0397 1.4402C71.5497 0.970201 72.1697 0.760201 72.8797 0.760201C73.5897 0.760201 74.2097 0.990201 74.7197 1.4402C75.2297 1.8902 75.4897 2.53019 75.4897 3.34019ZM75.0797 23.2402H70.6897V7.8102H75.0797V23.2402ZM88.1897 11.6702C87.7997 11.5602 87.3297 11.4802 86.7997 11.3702C86.2597 11.2602 85.7097 11.2002 85.0897 11.2002C84.8097 11.2002 84.4897 11.2202 84.1097 11.2602C83.7197 11.3002 83.4497 11.3702 83.2297 11.4302V23.2302H78.8397V8.6102C79.6297 8.3302 80.5497 8.08019 81.6197 7.84019C82.6897 7.61019 83.8897 7.4802 85.1997 7.4802C85.4397 7.4802 85.7097 7.5002 86.0597 7.5202C86.3997 7.5402 86.7197 7.5802 87.0697 7.6502C87.4097 7.6902 87.7297 7.7602 88.0797 7.8202C88.4197 7.8802 88.6997 7.9702 88.9397 8.0802L88.2097 11.6702H88.1897ZM105.64 15.5302C105.64 16.7702 105.47 17.8802 105.1 18.8802C104.74 19.8802 104.2 20.7402 103.52 21.4402C102.83 22.1402 101.98 22.6802 100.99 23.0602C99.9797 23.4402 98.8497 23.6402 97.5597 23.6402C97.0197 23.6402 96.4697 23.6202 95.8897 23.5802C95.3097 23.5402 94.7297 23.4702 94.1797 23.3902C93.6197 23.3002 93.0897 23.2202 92.5697 23.1102C92.0597 23.0002 91.6097 22.9002 91.2197 22.7702V3.6402L95.6097 0.200195V8.1602C96.0997 7.9502 96.6197 7.7802 97.1497 7.6702C97.6897 7.5402 98.2397 7.5002 98.8597 7.5002C99.9497 7.5002 100.94 7.6902 101.77 8.0802C102.61 8.4602 103.31 9.0002 103.89 9.7002C104.47 10.4002 104.9 11.2602 105.2 12.2402C105.48 13.2002 105.63 14.3102 105.63 15.5302H105.64ZM101.16 15.4002C101.16 12.5802 100.11 11.1702 98.0297 11.1702C97.5797 11.1702 97.1297 11.2302 96.6797 11.3402C96.2297 11.4702 95.8897 11.6002 95.6097 11.7902V19.7502C95.8197 19.7902 96.0997 19.8102 96.4497 19.8602C96.7897 19.8802 97.1597 19.9002 97.5397 19.9002C98.7397 19.9002 99.6397 19.4902 100.26 18.6602C100.84 17.8302 101.16 16.7402 101.16 15.3902V15.4002ZM113.86 7.3802C115.17 7.3802 116.24 7.5302 117.09 7.8302C117.95 8.1302 118.65 8.53019 119.17 9.09019C119.68 9.64019 120.05 10.3102 120.28 11.1002C120.49 11.8902 120.6 12.7602 120.6 13.7002V22.7902C119.98 22.9202 119.1 23.0902 117.99 23.2802C116.88 23.4702 115.51 23.5602 113.92 23.5602C112.91 23.5602 112.01 23.4702 111.2 23.3002C110.39 23.1302 109.68 22.8302 109.1 22.4202C108.5 22.0102 108.05 21.5002 107.75 20.8402C107.43 20.2002 107.28 19.4102 107.28 18.4702C107.28 17.5302 107.45 16.8102 107.82 16.1902C108.18 15.5702 108.68 15.0602 109.28 14.7002C109.88 14.3402 110.59 14.0602 111.38 13.8902C112.17 13.7202 112.99 13.6302 113.82 13.6302C114.4 13.6302 114.89 13.6502 115.34 13.6902C115.79 13.7302 116.13 13.8002 116.41 13.8802V13.4702C116.41 12.7202 116.17 12.1302 115.72 11.6802C115.27 11.2302 114.48 11.0002 113.36 11.0002C112.61 11.0002 111.88 11.0602 111.15 11.1702C110.42 11.2802 109.8 11.4302 109.27 11.6202L108.71 8.1002C108.97 8.0102 109.29 7.93019 109.67 7.84019C110.06 7.75019 110.46 7.6702 110.91 7.6102C111.36 7.5502 111.83 7.4802 112.34 7.4402C112.83 7.4202 113.33 7.3802 113.84 7.3802H113.86ZM114.23 20.1802C114.66 20.1802 115.06 20.1802 115.47 20.1602C115.86 20.1402 116.18 20.1202 116.41 20.0702V16.7602C116.24 16.7202 115.96 16.6702 115.62 16.6302C115.26 16.5902 114.93 16.5702 114.66 16.5702C114.25 16.5702 113.87 16.5902 113.5 16.6302C113.14 16.6702 112.81 16.7802 112.54 16.9102C112.26 17.0402 112.05 17.2302 111.9 17.4602C111.75 17.6902 111.66 17.9902 111.66 18.3402C111.66 19.0202 111.9 19.4902 112.35 19.7702C112.78 20.0502 113.42 20.1802 114.23 20.1802ZM128.4 20.1002C129.21 20.1002 129.77 20.0102 130.11 19.8702C130.45 19.7202 130.6 19.4002 130.6 18.9502C130.6 18.5902 130.39 18.2902 129.96 18.0302C129.53 17.7702 128.87 17.4802 127.99 17.1302C127.3 16.8702 126.68 16.6202 126.13 16.3402C125.57 16.0602 125.1 15.7402 124.7 15.3602C124.31 14.9802 123.99 14.5302 123.78 13.9902C123.57 13.4602 123.46 12.8202 123.46 12.0902C123.46 10.6402 124 9.4902 125.09 8.6502C126.16 7.8202 127.66 7.3902 129.54 7.3902C130.48 7.3902 131.38 7.4802 132.26 7.6502C133.12 7.8202 133.8 7.9902 134.32 8.1802L133.55 11.6002C133.04 11.4302 132.48 11.2602 131.88 11.1302C131.28 11.0002 130.62 10.9202 129.87 10.9202C128.5 10.9202 127.81 11.3002 127.81 12.0702C127.81 12.2402 127.83 12.4102 127.9 12.5402C127.96 12.6702 128.07 12.8202 128.26 12.9502C128.43 13.0802 128.67 13.2102 128.99 13.3602C129.29 13.5102 129.68 13.6802 130.15 13.8502C131.11 14.2102 131.91 14.5502 132.53 14.9002C133.15 15.2402 133.64 15.6302 134.01 16.0102C134.37 16.4202 134.63 16.8602 134.78 17.3302C134.93 17.8202 134.99 18.3802 134.99 19.0402C134.99 20.5602 134.41 21.7102 133.28 22.5002C132.12 23.2902 130.5 23.6702 128.4 23.6702C127.03 23.6702 125.87 23.5402 124.97 23.3102C124.05 23.0802 123.43 22.8802 123.06 22.7102L123.79 19.1702C124.54 19.4702 125.31 19.7002 126.08 19.8502C126.87 20.0202 127.64 20.1102 128.41 20.1102L128.4 20.1002ZM136.52 15.6402C136.52 14.2702 136.73 13.0802 137.16 12.0302C137.59 11.0102 138.14 10.1502 138.83 9.4702C139.52 8.7902 140.31 8.2702 141.21 7.9102C142.11 7.5502 143.03 7.3802 143.97 7.3802C146.18 7.3802 147.91 8.0402 149.19 9.3902C150.47 10.7302 151.1 12.7002 151.1 15.3002C151.1 15.5602 151.1 15.8302 151.08 16.1302C151.06 16.4302 151.04 16.7102 151.02 16.9402H141.06C141.17 17.8402 141.57 18.5602 142.32 19.0702C143.07 19.6002 144.08 19.8602 145.32 19.8602C146.13 19.8602 146.93 19.8002 147.7 19.6502C148.47 19.5002 149.11 19.3302 149.61 19.1202L150.21 22.6602C149.97 22.7902 149.65 22.8902 149.27 23.0202C148.88 23.1502 148.43 23.2302 147.96 23.3202C147.49 23.4102 146.95 23.4902 146.42 23.5302C145.86 23.5902 145.33 23.6202 144.77 23.6202C143.38 23.6202 142.16 23.4102 141.13 23.0002C140.1 22.5902 139.25 22.0202 138.56 21.3102C137.87 20.6102 137.38 19.7502 137.06 18.7702C136.67 17.8302 136.52 16.7602 136.52 15.6302V15.6402ZM146.82 13.9702C146.8 13.6102 146.73 13.2402 146.63 12.8802C146.52 12.5202 146.35 12.2202 146.14 11.9402C145.9 11.6602 145.63 11.4502 145.28 11.2602C144.94 11.0902 144.51 11.0002 144 11.0002C143.49 11.0002 143.08 11.0902 142.74 11.2602C142.38 11.4302 142.1 11.6402 141.86 11.9202C141.62 12.2002 141.45 12.5202 141.32 12.8802C141.19 13.2402 141.11 13.6102 141.04 13.9902H146.82V13.9702Z" fill="white"/>
<path d="M61.6704 34.3499C61.6704 36.5299 60.0404 38.1299 58.0304 38.1299C56.8304 38.1299 55.6904 37.5099 55.1704 36.5299V37.9399H54.1904V26.8599H55.1704V32.1599C55.7104 31.1799 56.8104 30.5799 58.0304 30.5799C60.0404 30.5799 61.6704 32.1599 61.6704 34.3499ZM60.7004 34.3299C60.7004 32.7499 59.4704 31.5199 57.9504 31.5199C56.5204 31.5199 55.1704 32.6399 55.1704 34.3799C55.1704 36.1199 56.4604 37.1899 57.9504 37.1899C59.4404 37.1899 60.7004 35.9299 60.7004 34.3299Z" fill="white"/>
<path d="M68.5308 30.7598H69.5908L65.0908 41.4298H64.0408L65.5208 37.8598L62.5508 30.7598H63.6108L66.0508 36.6298L68.5308 30.7598Z" fill="white"/>
<path d="M95.29 34.4901L93.81 30.8201H91.31L94.12 37.0901L92.37 41.4401H94.78L99.17 30.8301H96.74L95.29 34.5001V34.4901ZM99.8 37.9201H102.06V27.0601H99.8V37.9201ZM106.75 30.6301C104.69 30.5601 102.97 32.1601 102.89 34.2201C102.89 34.2601 102.89 34.3101 102.89 34.3501C102.89 36.4101 104.57 38.0701 106.63 38.0601C106.67 38.0601 106.71 38.0601 106.75 38.0601C108.81 38.1401 110.54 36.5301 110.62 34.4601C110.62 34.4201 110.62 34.3901 110.62 34.3501C110.62 32.2901 108.93 30.6201 106.87 30.6301C106.83 30.6301 106.79 30.6301 106.75 30.6301ZM106.75 35.9701C105.9 35.9901 105.19 35.3101 105.18 34.4601C105.18 34.4301 105.18 34.3901 105.18 34.3601C105.14 33.5001 105.8 32.7701 106.66 32.7301C106.69 32.7301 106.72 32.7301 106.75 32.7301C107.61 32.7301 108.31 33.4101 108.32 34.2701C108.32 34.3001 108.32 34.3301 108.32 34.3601C108.36 35.2101 107.7 35.9301 106.85 35.9701C106.82 35.9701 106.78 35.9701 106.75 35.9701ZM115.28 32.7201C115.81 32.7201 116.32 32.9801 116.64 33.4101L118.38 32.3101C117.7 31.2501 116.53 30.6201 115.27 30.6301C113.2 30.6301 111.35 32.0801 111.35 34.3401C111.35 36.6001 113.2 38.0601 115.27 38.0601C116.53 38.0701 117.7 37.4401 118.38 36.3801L116.64 35.2801C116.32 35.7101 115.82 35.9601 115.28 35.9701C114.42 36.0201 113.68 35.3501 113.63 34.4901C113.63 34.4401 113.63 34.3901 113.63 34.3401C113.6 33.4801 114.27 32.7501 115.13 32.7201C115.18 32.7201 115.23 32.7201 115.28 32.7201ZM120.33 27.1101C119.58 27.0801 118.96 27.6601 118.93 28.4101C118.93 28.4101 118.93 28.4101 118.93 28.4201C118.96 29.1701 119.59 29.7501 120.33 29.7301C121.07 29.7401 121.68 29.1601 121.7 28.4201C121.7 27.6901 121.09 27.1001 120.36 27.1101C120.35 27.1101 120.34 27.1101 120.33 27.1101ZM119.19 37.9201H121.45V30.8101H119.19V37.9201ZM123.77 28.2501V30.8101H122.47V32.5001H123.77V37.9101H126.03V32.5001H127.88L129.93 37.0701L128.18 41.4201H130.59L134.98 30.8101H132.55L131.1 34.4801L129.62 30.8101H126.02V28.2501H123.76H123.77ZM78.67 30.6301C77.83 30.6101 77.03 30.9501 76.47 31.5801V30.8201H74.21V41.4301H76.47V37.1101C77.03 37.7201 77.83 38.0601 78.67 38.0401C80.61 38.0201 82.16 36.4301 82.14 34.4901C82.14 34.4401 82.14 34.3901 82.14 34.3401C82.24 32.4001 80.75 30.7401 78.81 30.6401C78.77 30.6401 78.72 30.6401 78.68 30.6401M78.2 35.9501C77.3 35.9501 76.57 35.2301 76.55 34.3301C76.57 33.4401 77.3 32.7201 78.2 32.7301C79.1 32.7301 79.83 33.4301 79.85 34.3301C79.85 35.2301 79.1 35.9501 78.2 35.9501ZM88.41 31.5901C87.85 30.9701 87.04 30.6201 86.2 30.6401C84.26 30.6701 82.72 32.2701 82.75 34.2101C82.75 34.2601 82.75 34.3001 82.75 34.3501C82.64 36.2801 84.12 37.9401 86.05 38.0501C86.1 38.0501 86.14 38.0501 86.19 38.0501C87.03 38.0701 87.84 37.7301 88.4 37.1001V37.9101H90.64V30.8001H88.4V31.5801L88.41 31.5901ZM86.69 35.9501C85.79 35.9501 85.06 35.2501 85.04 34.3501C85.06 33.4601 85.79 32.7401 86.69 32.7501C87.58 32.7501 88.31 33.4601 88.32 34.3501C88.32 35.2401 87.58 35.9601 86.69 35.9501Z" fill="white"/>
</g>
<defs>
<clipPath id="clip0_4124_258">
<rect width="152" height="42" fill="white"/>
</clipPath>
</defs>
</svg>
