<svg width="128" height="22" xmlns="http://www.w3.org/2000/svg" viewBox="0 0 166 29" fill="currentColor" class="w-32">
    <path fill-rule="evenodd" d="M8.044 28.548V6.191H0V1.034h22.803l-1.591 5.157h-7.27v22.357zM48.42 9.657c0-2.31-1.775-3.712-4.126-3.712h-6.146v7.425h6.146c2.351 0 4.125-1.403 4.125-3.713zm-.578 18.645-5.404-9.776h-4.29v9.776h-5.857V.789h12.87c5.733 0 9.24 3.753 9.24 8.868 0 4.868-3.053 7.466-6.023 8.168l6.187 10.477h-6.723zM78.448 6.646l-4.29 11.839h8.58l-4.29-11.839zm7.59 21.656-1.691-4.661H72.55l-1.733 4.66h-6.682L74.777.79h7.342L92.72 28.302h-6.682zm43.207-24.073L125.074.058l-10.316 10.316L104.441.058l-4.171 4.171 10.317 10.316-10.317 10.317 4.171 4.171 10.317-10.317 10.316 10.317 4.171-4.171-10.317-10.317zm21.96-3.915c-7.86 0-14.23 6.372-14.23 14.231 0 7.86 6.37 14.231 14.23 14.231s14.231-6.371 14.231-14.23c0-7.86-6.371-14.232-14.23-14.232m0 5.59c4.765 0 8.641 3.876 8.641 8.641 0 4.766-3.876 8.643-8.642 8.643-4.765 0-8.642-3.877-8.642-8.643 0-4.765 3.877-8.642 8.642-8.642"></path>
</svg>