<svg xmlns="http://www.w3.org/2000/svg" width="768" height="200" viewBox="0 0 768 200">
  <style>
    .icon {
      fill: #802364;
    }
    .text {
      fill: black;
    }
    @media (prefers-color-scheme: dark) {
      .text {
        fill: white;
      }
    }
  </style>
  <g>
    <path class="icon" d="M180.54,167.81,135.74,123a32.74,32.74,0,0,1,0-46.3l44.53-44.53,19.46,19.46L155.2,96.18a5.23,5.23,0,0,0,0,7.38L200,148.35l-19.46,19.46Z"/>
    <path class="icon" d="M19.72,167.81.27,148.35,44.8,103.82a5.23,5.23,0,0,0,0-7.38L0,51.65,19.46,32.19,64.26,77a32.77,32.77,0,0,1,0,46.29L19.73,167.8Z"/>
    <path class="icon" d="M99.87,73.82a32.66,32.66,0,0,1-23.15-9.57L32.19,19.72,51.65.26,96.18,44.79a5.23,5.23,0,0,0,7.38,0L148.35,0l19.46,19.46L123,64.25a32.63,32.63,0,0,1-23.15,9.57Z"/>
    <path class="icon" d="M51.65,200,32.19,180.54,77,135.75a32.77,32.77,0,0,1,46.29,0l44.53,44.53-19.46,19.46-44.53-44.53a5.23,5.23,0,0,0-7.38,0L51.64,200Z"/>
  </g>
  <g>
    <polygon class="text" points="333.9 48.2 301.4 132.8 268.2 48.2 238.9 48.2 282.1 151.3 320.7 151.3 363.2 48.2 333.9 48.2"/>
    <path class="text" d="M444.2,53.3c-8.1-4.5-17.8-6.8-28.9-6.8s-20.4,2.3-28.7,6.7A49.94,49.94,0,0,0,367,72c-4.7,8-7,17.4-7,28s2.3,19.7,6.9,27.8a48.35,48.35,0,0,0,19.4,18.9c8.2,4.5,18,6.8,29,6.8a72,72,0,0,0,21.7-3,53.91,53.91,0,0,0,16.3-8,40.84,40.84,0,0,0,10.5-11.2,29.69,29.69,0,0,0,4.4-12.8V118H442v.4a11.82,11.82,0,0,1-1.8,4.8,15.22,15.22,0,0,1-4.6,4.5,24.1,24.1,0,0,1-7.9,3.3,48.35,48.35,0,0,1-11.5,1.2q-9.75,0-16.5-3.9A24.93,24.93,0,0,1,389.5,117a37.78,37.78,0,0,1-2.7-8.8h82.4l.1-.4c.1-.7.2-1.8.3-3.4s.1-3,.1-4.3c0-10.6-2.2-20.1-6.6-28.1a47.88,47.88,0,0,0-18.9-18.7Zm-1.8,36.1H387a31.43,31.43,0,0,1,2.6-7.3,25.53,25.53,0,0,1,10.3-11,31.58,31.58,0,0,1,15.8-3.8c6.1,0,11.2,1.2,15.1,3.5a23.12,23.12,0,0,1,8.9,9.2,28.87,28.87,0,0,1,2.7,9.4Z"/>
    <path class="text" d="M548.4,47.4a43.68,43.68,0,0,0-10-.9A37.09,37.09,0,0,0,524.2,49a31.36,31.36,0,0,0-10.6,7.1,42.2,42.2,0,0,0-3.8,4.6V48.2H483.5V151.3h26.3V100a47.14,47.14,0,0,1,1.3-10.5,29.35,29.35,0,0,1,4.4-9.7,21.05,21.05,0,0,1,8.1-6.9,28.59,28.59,0,0,1,12.8-2.6,23.18,23.18,0,0,1,7.7,1,23.48,23.48,0,0,1,3.8,1.6l.6.4,4.8-24.2L553,49a23.77,23.77,0,0,0-4.6-1.6Z"/>
    <path class="text" d="M637.1,98.5a59.88,59.88,0,0,0-13.2-5.4c-4.8-1.3-9.6-2.4-14.2-3.2a131.07,131.07,0,0,1-13-2.8,25.21,25.21,0,0,1-8.7-3.9,6.9,6.9,0,0,1-3-5.8,6.63,6.63,0,0,1,2.9-5.9,19.73,19.73,0,0,1,7.5-3.1,37.44,37.44,0,0,1,18,.4,16.54,16.54,0,0,1,7,4,9.27,9.27,0,0,1,2.6,6.9v1.8h26v-2a26.29,26.29,0,0,0-6.3-17.7,41,41,0,0,0-16.5-11.2,61.34,61.34,0,0,0-22-3.9,68.91,68.91,0,0,0-22.5,3.6,38.92,38.92,0,0,0-16.4,10.6c-4.1,4.7-6.1,10.5-6.1,17.3a23.49,23.49,0,0,0,3.6,13.2,30.35,30.35,0,0,0,9.5,9,54.51,54.51,0,0,0,13,5.7,117.51,117.51,0,0,0,14.5,3.4c8.8,1.4,15.3,3,19.4,4.7s5.9,4.3,5.9,8.2a7.1,7.1,0,0,1-2.8,5.8,18.68,18.68,0,0,1-7.5,3.5,40.35,40.35,0,0,1-10,1.1c-6.5,0-11.7-1-15.4-3.1s-5.5-4.9-5.5-8.9v-2.2H557.7v2.7a26.92,26.92,0,0,0,3.8,14.2,32,32,0,0,0,10.2,10.2,49.06,49.06,0,0,0,14.8,6.1,71.13,71.13,0,0,0,17.5,2,79.58,79.58,0,0,0,17.2-1.8,50.93,50.93,0,0,0,15-5.8,31.82,31.82,0,0,0,10.6-10,26.64,26.64,0,0,0,3.9-14.7,24,24,0,0,0-3.8-13.7,25.73,25.73,0,0,0-9.8-9.3Z"/>
    <path class="text" d="M767.1,150.5a13.65,13.65,0,0,1-2-2.8,20.07,20.07,0,0,1-2.2-5.1,35,35,0,0,1-1-6.2c-.2-2.3-.2-4.7-.2-7.1V82.7c0-8-2.3-14.8-6.8-20.2a41.24,41.24,0,0,0-17.8-12.1,72.42,72.42,0,0,0-24.3-4,70.66,70.66,0,0,0-25.5,4.4,40.18,40.18,0,0,0-17.8,12.8c-4.3,5.6-6.5,12.5-6.5,20.6v.5h26v-.5c0-5.7,2-9.9,6-12.5s9.9-4,17.6-4,12.9,1.2,16.9,3.6,5.8,5.6,5.8,10v.2c0,2.1-2.2,3.7-6.6,4.7-4.6,1.1-12.8,2.2-24.4,3.3a80.23,80.23,0,0,0-21.7,4.8A37.91,37.91,0,0,0,667,104.9c-3.9,4.6-5.8,10.5-5.8,17.6a28,28,0,0,0,5,16.7A30.92,30.92,0,0,0,680,149.8a52.94,52.94,0,0,0,20.3,3.6,63.52,63.52,0,0,0,17.9-2.4,42.72,42.72,0,0,0,14.2-6.9,35.21,35.21,0,0,0,4.1-3.6,16.81,16.81,0,0,0,.9,3.2,28.28,28.28,0,0,0,2.2,4.6,10.19,10.19,0,0,0,2,2.7l.2.1H768l-.9-.6Zm-31.7-47.1v4.2c0,5.8-1.4,10.5-4,14.2a24.3,24.3,0,0,1-10.7,8.2,38,38,0,0,1-14.4,2.7c-6.3,0-11.1-1-14.2-3.1s-4.6-5-4.6-9.1a9.42,9.42,0,0,1,5.5-9c3.7-1.9,9.4-3.2,16.9-3.9,5.9-.6,11.8-1.4,17.5-2.4,2.8-.6,5.5-1.1,8-1.8Z"/>
  </g>
</svg>
