<svg id="Layer_1" data-name="Layer 1" xmlns="http://www.w3.org/2000/svg" width="40.6mm" height="6.97mm" viewBox="0 0 115.09 19.75">
  <title>acmebank</title>
  <path d="M4,15.75a1,1,0,0,1-1-1v-5A.92.92,0,0,1,3.29,9,1,1,0,0,1,4,8.75a1,1,0,0,1,1,1v5a1,1,0,0,1-.29.71A1,1,0,0,1,4,15.75Zm6,0a1,1,0,0,1-1-1v-5A.92.92,0,0,1,9.29,9,1,1,0,0,1,11,9.75v5a1,1,0,0,1-.29.71A1,1,0,0,1,10,15.75Zm-9,4a.92.92,0,0,1-.7-.29A1,1,0,0,1,.29,18,1,1,0,0,1,1,17.75H19a1,1,0,0,1,.71.29,1,1,0,0,1,.27.71,1,1,0,0,1-1,1Zm15-4a1,1,0,0,1-1-1v-5a.92.92,0,0,1,.29-.7A1,1,0,0,1,17,9.75v5a1,1,0,0,1-.29.71A1,1,0,0,1,16,15.75ZM10.9.2l8.43,4.2a1.31,1.31,0,0,1,.5.49,1.43,1.43,0,0,1,.17.68,1.09,1.09,0,0,1-.36.84,1.21,1.21,0,0,1-.87.34H1.25a1.22,1.22,0,0,1-.87-.34A1,1,0,0,1,0,5.57a1.42,1.42,0,0,1,.16-.68,1,1,0,0,1,.52-.47L9.1.2a2.12,2.12,0,0,1,1.8,0ZM4.45,4.75h0Zm0,0h11.1L10,2Z"/>
  <g>
    <path d="M33.71,3.52l3.13,12.85H33.28l-.35-2.25H30.27l-.34,2.25H26.42L29.5,3.52ZM31.59,6.15l-.92,5.45h1.87l-.92-5.45Z"/>
    <path d="M42.31,5.93a.74.74,0,0,0-.7-.39.84.84,0,0,0-.6.2,1.24,1.24,0,0,0-.34.7,7.93,7.93,0,0,0-.16,1.36c0,.57,0,1.28,0,2.15s0,1.58,0,2.15a8.06,8.06,0,0,0,.16,1.36,1.27,1.27,0,0,0,.34.7.89.89,0,0,0,.6.2.8.8,0,0,0,.5-.15,1,1,0,0,0,.31-.52,4.85,4.85,0,0,0,.15-1c0-.4,0-.91,0-1.52h3.24v.95a5.86,5.86,0,0,1-.36,2.22,3.56,3.56,0,0,1-1,1.36,3.14,3.14,0,0,1-1.36.66,7,7,0,0,1-1.58.17,6.49,6.49,0,0,1-2.3-.34,2.84,2.84,0,0,1-1.41-1.14A5.6,5.6,0,0,1,37.21,13,20.72,20.72,0,0,1,37,10a18.35,18.35,0,0,1,.23-3.12A5.3,5.3,0,0,1,38,4.76a3.12,3.12,0,0,1,1.42-1.14,6,6,0,0,1,2.18-.35,5.73,5.73,0,0,1,1.93.29,3.1,3.1,0,0,1,2,2.09,5.85,5.85,0,0,1,.23,1.69v.81H42.53V7.43A3.44,3.44,0,0,0,42.31,5.93Z"/>
    <path d="M51.73,3.52l1.35,7.62h0l1.35-7.62h4.79V16.37H56.12V6.8h0L54.3,16.37H51.89L50.11,6.8h0v9.57H46.94V3.52Z"/>
    <path d="M68.32,3.52V6.26H64.06V8.45h4v2.63h-4v2.56h4.42v2.73H60.71V3.52Z"/>
    <path d="M79.55,3.52a3.54,3.54,0,0,1,2.66.88,3.17,3.17,0,0,1,.85,2.33,4,4,0,0,1-.11,1,3,3,0,0,1-.36.86,2.29,2.29,0,0,1-.62.66,2.55,2.55,0,0,1-.92.38v0a2.41,2.41,0,0,1,1.08.34,2.44,2.44,0,0,1,.74.69,2.91,2.91,0,0,1,.42.91,3.76,3.76,0,0,1,.13,1,5.34,5.34,0,0,1-.21,1.53,3.16,3.16,0,0,1-.68,1.2,3,3,0,0,1-1.19.79,5.27,5.27,0,0,1-1.79.27h-5V3.52Zm-.9,5a.91.91,0,0,0,.8-.39,1.52,1.52,0,0,0,.27-.9,1.62,1.62,0,0,0-.27-.94.92.92,0,0,0-.8-.4h-.81V8.56Zm.13,5.4a1.13,1.13,0,0,0,.83-.38,1.72,1.72,0,0,0,.36-1.2,1.63,1.63,0,0,0-.36-1.15,1.08,1.08,0,0,0-.83-.4h-.94V14Z"/>
    <path d="M91,3.52l3.13,12.85H90.61l-.35-2.25H87.6l-.34,2.25H83.75L86.83,3.52ZM88.91,6.15,88,11.6h1.87L89,6.15Z"/>
    <path d="M98.47,3.52l2.16,7.92h0V3.52h3.13V16.37h-3.67L97.9,8.44h0v7.93H94.73V3.52Z"/>
    <path d="M108.61,3.52V8.45h0l2.49-4.93h3.56l-3.24,5.62,3.64,7.23h-3.82l-2-4.48-.7,1.08v3.4h-3.35V3.52Z"/>
  </g>
</svg>
