<svg xmlns="http://www.w3.org/2000/svg" width="194" viewBox="0 0 194 40" height="40" fill="none"><path fill="white" d="m6.19366 13.5522c-3.42068.0001-6.19366 2.7731-6.19366 6.1938v20.0168c0 .1309.106093.237.236966.237h20.016834c1.6427 0 3.2181-.6526 4.3797-1.8142 1.1615-1.1615 1.8141-2.7369 1.814-4.3796v-20.0474c0-.114-.0923-.2063-.2063-.2064z"></path><path fill-rule="evenodd" fill="black" d="m16.6094 31.4145c-.7423-.893-1.5367-1.8991-2.8209-1.9689l-.0032-.0002h-4.72278c-1.60269 0-2.2075-1.9071-2.17715-3.1916.02792-1.1791.6375-2.685 2.05222-2.685h5.11821v-2.2827h-5.29782c-2.96486 0-4.78916 2.2083-4.88555 4.9938-.03175.7853.08087 1.5699.33249 2.3163.2352.7115.639 1.3585 1.17848 1.8883.79144.7449 1.85485 1.1487 2.95277 1.1213h8.43223z" clip-rule="evenodd"></path><path fill-rule="evenodd" fill="black" d="m22.3294 32.0442c-1.4375-1.1894-2.6153-2.3976-3.0154-4.2418 1.5025-.3122 2.7286-1.6217 2.7306-3.1707-.0076-.8959-.3771-1.752-1.0271-2.3796-.6499-.6276-1.5269-.9751-2.4375-.9658h-3.7346l.0016 2.2885h2.973c.6615 0 1.3137.2897 1.3408 1.0179.0087.2984-.105.5877-.3155.8027-.3044.2769-.8276.3373-1.2762.3437-.0524-.0007-.1035-.0018-.1517-.0032-.8141-.0231-1.6236-.1283-2.4408-.1447-.1062-.0021-.2131-.0028-.3207-.0019-.7854-.0349-1.5694.0937-2.3008.3772-.4894.2092-.9173.5363-1.2443.9511l-.146.1846.2377.0052c1.3827-.013 2.7354.3974 3.8706 1.1742.9254.6436 1.6416 1.4796 2.4694 2.2271 1.3571 1.2256 2.6563 1.7622 4.5203 1.743.063.0006.1265.0007.1909 0l.3223-.0037z" clip-rule="evenodd"></path><g fill="white"><path d="m161.786 34.1904h-2.65c-.112 0-.213-.0682-.256-.1727l-5.816-14.2811c-.035-.0856-.025-.183.026-.2598s.138-.1228.23-.1228h2.02c.114 0 .216.0695.258.1754l4.863 12.3119 4.848-12.3116c.042-.106.144-.1757.258-.1757h2.035c.093 0 .179.046.23.1228.052.0768.062.1742.027.2598l-5.817 14.2812c-.042.1044-.144.1727-.256.1726z"></path><path d="m43.1014 19.3541c1.4585-.007 2.9018.2996 4.2343.8993.1052.052.1661.1657.1518.2831l-.1935 1.6465c-.0098.0866-.0595.1635-.134.2074-.0744.0439-.165.0497-.2444.0156-1.2109-.4986-2.5069-.7517-3.8143-.7451-3.4443 0-5.8017 2.1829-5.8017 5.3875 0 3.2356 2.3727 5.4804 5.8323 5.4804 1.3472-.0072 2.6803-.2772 3.9263-.7952.0768-.0335.1645-.0296.238.0106s.1247.1123.139.1956l.2963 1.6711c.0236.1275-.0433.2546-.1612.3059-1.4079.5901-2.9145.902-4.4384.9187-4.9292 0-8.2969-3.1582-8.2969-7.7871.0001-4.567 3.3525-7.6943 8.2664-7.6943z"></path><path fill-rule="evenodd" d="m133.837 33.4842c.105-.0594.161-.1797.138-.2984l-.323-1.6637c-.018-.0861-.074-.1591-.153-.1969-.08-.0378-.172-.0361-.25.0046-1.517.817-3.218 1.2312-4.94 1.2031-2.875 0-5.349-1.6102-5.766-4.5359h11.897c.137.0002.255-.0999.276-.2359.667-4.4701-2.165-8.4022-7.103-8.4022-4.452 0-7.636 3.3128-7.636 7.7402 0 4.5822 3.447 7.7402 8.44 7.7402 1.893.0253 3.761-.4416 5.42-1.3551zm-6.15-11.8337c2.829 0 4.576 1.7957 4.746 4.3345h-9.832c.232-2.5388 2.288-4.3345 5.086-4.3345z" clip-rule="evenodd"></path><path fill-rule="evenodd" d="m181.74 33.4838c.105-.0594.16-.1797.137-.2984l-.323-1.6637c-.017-.0861-.074-.1591-.153-.1969-.079-.0379-.171-.0361-.249.0046-1.517.8169-3.218 1.2311-4.941 1.203-2.875 0-5.348-1.6102-5.766-4.5359h11.897c.138.0003.255-.0998.277-.2359.667-4.4701-2.166-8.4022-7.103-8.4022-4.453 0-7.637 3.3128-7.637 7.7403 0 4.5822 3.447 7.7402 8.441 7.7402 1.893.0253 3.76-.4416 5.42-1.3551zm-6.151-11.8338c2.829 0 4.576 1.7957 4.746 4.3345h-9.832c.232-2.5388 2.288-4.3345 5.086-4.3345z" clip-rule="evenodd"></path><path fill-rule="evenodd" d="m90.9581 27.0991c0-4.3504-3.3088-7.7407-7.7408-7.7407-4.4319 0-7.7407 3.3903-7.7407 7.7407 0 4.3505 3.3088 7.7408 7.7407 7.7408 4.432 0 7.7408-3.3903 7.7408-7.7408zm-2.7952 2.0969c-.8317 2.0358-2.7845 3.3595-4.9467 3.3533-1.4241.0289-2.798-.5365-3.8037-1.5653-1.0058-1.0288-1.5562-2.4318-1.5238-3.8842 0-2.2056 1.3034-4.1936 3.3016-5.0362 1.9983-.8425 4.2975-.3735 5.8243 1.1883 1.5267 1.5618 1.9801 3.9082 1.1483 5.9441z" clip-rule="evenodd"></path><path d="m57.6911 19.2081c-2.3445 0-4.0914 1.1469-4.9189 2.5079v-5.8808c0-.6064-.2418-1.188-.672-1.6162-.4302-.4283-1.0135-.6682-1.6212-.6667-.0888.0022-.1594.0751-.1587.1638v20.2034c0 .1517.1233.2747.2753.2747h1.8859c.1521 0 .2753-.123.2753-.2747v-8.0136c0-2.6761 2.0381-4.4041 4.5512-4.4041 2.6357 0 4.1374 1.4987 4.1374 4.3583v8.0594c0 .1517.1233.2747.2753.2747h1.8706c.1521 0 .2753-.123.2753-.2747v-8.6557c.0001-3.7772-2.3292-6.0557-6.1755-6.0557z"></path><path d="m111.838 19.354c-2.428 0-4.451 1.1657-5.463 3.0581-.903-1.9075-2.817-3.0581-5.463-3.0581-2.3344 0-4.0774 1.1203-4.9023 2.4677v.0904c0-.5966-.244-1.1686-.6782-1.59-.4342-.4213-1.0229-.6573-1.6362-.6559-.0896.0023-.1609.074-.1601.1612v14.0909c0 .1502.1251.272.2796.272h1.9153c.1544 0 .2796-.1218.2796-.272v-7.9788c0-2.6342 1.9921-4.3146 4.4983-4.3146 2.505 0 4.03 1.5896 4.03 4.2692v8.0243c0 .1502.126.2719.28.2719h1.915c.155 0 .28-.1217.28-.2719v-8.0697c0-2.5737 2.008-4.2237 4.436-4.2237 2.599 0 4.124 1.5896 4.124 4.2692v8.0243c0 .1502.125.2719.28.2719h1.915c.154 0 .28-.1217.28-.2719v-8.6148c0-3.5577-2.319-5.9497-6.21-5.9497z"></path><path d="m72.788 19.3547c-1.6916-.0295-3.2397.9464-3.9419 2.4848-.0387-1.2127-1.0348-2.1751-2.2488-2.1726-.0873.0022-.1566.0739-.1559.1611v14.0905c0 .1502.1218.2719.2721.2719h1.8793c.1503 0 .2722-.1217.2722-.2719v-7.7969c0-3.2548 1.8933-4.5264 3.8321-4.5264.5409-.0069 1.0789.0776 1.5916.2499.0778.0258.1631.0149.232-.0296.0688-.0445.1138-.1177.1222-.1993l.1826-1.6765c.0141-.1257-.0606-.2444-.18-.2863-.5982-.202-1.226-.303-1.8575-.2987z"></path><path d="m143.265 19.3547c-1.692-.0295-3.24.9464-3.942 2.4848-.039-1.2127-1.035-2.1751-2.249-2.1726-.087.0022-.157.0739-.156.1611v14.0905c0 .1502.122.2719.272.2719h1.879c.151 0 .273-.1217.273-.2719v-7.797c0-3.2547 1.893-4.5264 3.832-4.5264.541-.0068 1.079.0776 1.591.2499.078.0258.163.0149.232-.0295.069-.0445.114-.1178.123-.1993l.182-1.6766c.014-.1256-.061-.2443-.18-.2862-.598-.2021-1.226-.303-1.857-.2987z"></path><path d="m191.644 19.3547c-1.692-.0295-3.24.9464-3.942 2.4848-.039-1.2127-1.035-2.1751-2.249-2.1726-.088.0022-.157.0739-.156.1611v14.0905c0 .1502.122.2719.272.2719h1.879c.151 0 .272-.1217.272-.2719v-7.797c0-3.2547 1.894-4.5264 3.833-4.5264.54-.0069 1.078.0776 1.591.2499.078.0258.163.0149.232-.0295.069-.0445.114-.1178.122-.1993l.183-1.6766c.014-.1256-.061-.2443-.18-.2862-.598-.2021-1.226-.303-1.857-.2987z"></path><path d="m148.17 19.354h1.998c.161 0 .291.1243.291.2776v14.2812c0 .1533-.13.2776-.291.2776h-1.998c-.161 0-.291-.1243-.291-.2776v-14.2812c0-.1533.13-.2776.291-.2776z"></path><path d="m147.244 15.7988c-.022-.4316.14-.8521.446-1.1577.305-.3055.726-.4675 1.158-.4458.653-.0033 1.244.3881 1.495.9911.252.603.114 1.2982-.348 1.7602s-1.157.5993-1.76.3478c-.603-.2516-.994-.8423-.991-1.4956z"></path><path fill-rule="evenodd" d="m34.835 7.09577c0-2.21381 1.6696-3.87018 3.9845-3.87018 2.4609 0 4.0657 1.92439 3.7057 4.26791-.0153.09229-.0984.16009-.1958.15967h-5.857c.2823 1.21522 1.2664 1.88863 2.7666 1.88863.8616-.01512 1.7084-.2176 2.4766-.5922.0558-.02429.1203-.02231.1744.00534.0541.02766.0917.07786.1019.13587l.176 1.01449c.0142.0799-.0261.1596-.1002.1985-.8699.4455-1.8429.6732-2.8288.6622-2.6052 0-4.4039-1.579-4.4039-3.87023zm4.0268-2.46491c-1.2744 0-2.2262.72766-2.3472 1.80352h4.5332c-.1049-1.07586-.9116-1.80352-2.186-1.80352z" clip-rule="evenodd"></path><path d="m53.6912 3.22868c-1.0751-.03002-2.0889.50474-2.6794 1.41329-.4764-.87649-1.3826-1.41329-2.6715-1.41329-.9339-.04542-1.8219.41225-2.334 1.20301-.1837-.62172-.75-1.04728-1.392-1.04596-.0568.00155-.1019.0487-.1016.10614v7.28113c0 .1068.0856.1933.1913.1933h1.172c.1056 0 .1912-.0865.1912-.1933v-4.07815c0-1.25542.9139-1.98181 2.031-1.98181 1.1014 0 1.7654.72639 1.7654 1.98181v4.07815c0 .1068.0856.1933.1913.1933h1.172c.1056 0 .1912-.0865.1912-.1933v-4.17296c0-1.19223.9374-1.887 2.0309-1.887 1.1014 0 1.7654.72639 1.7654 1.98181v4.07815c0 .0513.0202.1004.0561.1367.0358.0363.0845.0566.1352.0566h1.1719c.1056 0 .1913-.0865.1913-.1933v-4.40988c0-1.83955-1.078-3.13444-3.0777-3.13444z"></path><path fill-rule="evenodd" d="m59.6866 4.17037c.5827-.72171 1.4667-1.19708 2.7979-1.19708 2.24 0 3.955 1.59869 3.955 3.95649 0 2.35781-1.7149 4.03632-3.9549 4.03632-1.3255 0-2.2472-.4787-2.8538-1.27171-.1815.64341-.7818 1.08941-1.4668 1.08971-.0609 0-.1103-.0481-.1103-.1074v-9.19353c0-.819135.6817-1.48317 1.5226-1.48317.0609.00001541.1103.0481143.1103.107442zm.7353 4.59987c.4896.49206 1.1625.77067 1.8661.77266 1.5178 0 2.5271-1.19886 2.5271-2.61358s-1.0092-2.53362-2.5271-2.53362c-.6944-.01479-1.3648.24739-1.8559.72578s-.7603 1.13145-.7451 1.80784c-.0198.68505.2452 1.34886.7349 1.84092z" clip-rule="evenodd"></path><path d="m74.6292 3.22564h-1.1749c-.1066 0-.193.08659-.193.19341v4.07972c0 1.25594-.9383 1.98261-2.1288 1.98261-1.1589 0-1.8449-.72667-1.8449-1.98261v-4.07977c0-.0513-.0203-.10049-.0565-.13677-.0362-.03627-.0853-.05664-.1365-.05664h-1.175c-.0512-.00001-.1003.02036-.1365.05663-.0362.03628-.0565.08548-.0565.13678v4.41163c0 1.84027 1.0958 3.13567 3.1615 3.13567 1.3785 0 2.0949-.6815 2.4307-1.21024.1905.61294.7567 1.03044 1.3975 1.03044.0585 0 .1059-.0475.1059-.1061v-7.2614c0-.10678-.0864-.19333-.193-.19336z"></path><path d="m80.501 3.36276c-.2848-.0889-.5809-.13475-.879-.13606-.8588-.02805-1.6481.47601-1.9931 1.27293-.159-.65443-.7384-1.1146-1.4039-1.11501-.0579 0-.1049.04754-.1049.10617v7.28211c0 .1068.0855.1934.191.1934h1.1702c.1055 0 .191-.0865.191-.1934v-3.93703c0-1.71389 1.0763-2.15611 1.903-2.15611.2358-.00048.4706.03294.6971.09927.054.01598.1121.007.1589-.02453.0468-.03152.0775-.08238.0838-.13894l.1192-1.04599c.0106-.09244-.0454-.17941-.1333-.20681z"></path><path d="m85.4808 6.50688-.8444-.17798c-.9124-.1934-1.2517-.42563-1.2517-.8899 0-.54938.5429-.86663 1.6362-.86663.6753.00295 1.3456.11941 1.9843.34476.0528.01994.1115.01401.1595-.0161.048-.03012.0799-.08111.0867-.13842l.1122-.94435c.0102-.0869-.0387-.16971-.1184-.20075-.7391-.26452-1.5169-.39703-2.2996-.39177-1.8096 0-3.0159.92859-3.0159 2.18997 0 1.14526.6786 1.89585 1.9528 2.15901l1.0706.22426c.9349.19343 1.3269.4643 1.3269.96728 0 .57262-.5051.85111-1.5908.85111-.7723-.00933-1.5367-.15927-2.2579-.44285-.0524-.02075-.1111-.01577-.1595.01351s-.081.07965-.0887.13675l-.1296.94802c-.0118.0803.0282.1592.099.1953.8349.3523 1.7324.5212 2.6347.4957 1.7567 0 2.948-.7196 2.948-2.22077 0-1.29216-.7842-1.92673-2.2544-2.23615z"></path><path fill-rule="evenodd" d="m88.3701 7.09577c0-2.21382 1.6697-3.87018 3.9847-3.87018 2.4609 0 4.0658 1.92438 3.7057 4.26787-.0153.0923-.0984.16011-.1958.15967h-5.8572c.2824 1.21522 1.2665 1.88863 2.7667 1.88863.8616-.01512 1.7084-.2176 2.4767-.5922.0558-.02429.1203-.02231.1744.00534.0541.02766.0917.07786.1019.13587l.1761 1.01443c.0141.08-.0261.1597-.1002.1986-.87.4455-1.8429.6732-2.8289.6621-2.6053 0-4.4041-1.57892-4.4041-3.87013zm4.0338-2.46489c-1.2744 0-2.2262.72766-2.3472 1.80352h4.5332c-.1049-1.07586-.9116-1.80352-2.186-1.80352z" clip-rule="evenodd"></path></g></svg>